<svg width="368" height="276" viewBox="0 0 368 276" fill="none" xmlns="http://www.w3.org/2000/svg">
<rect width="368" height="276" rx="8" fill="#70AAFC"/>
<mask id="mask0" mask-type="alpha" maskUnits="userSpaceOnUse" x="0" y="0" width="368" height="276">
<rect width="368" height="276" rx="8" fill="#DDE6ED"/>
</mask>
<g mask="url(#mask0)">
<path d="M24.4321 33.761C24.4321 28.6088 28.6088 24.4321 33.761 24.4321H334.239C339.391 24.4321 343.568 28.6088 343.568 33.761V206.239C343.568 211.391 339.391 215.568 334.239 215.568H33.761C28.6088 215.568 24.4321 211.391 24.4321 206.239V33.761Z" fill="white" stroke="#F0F4F7" stroke-width="0.864287"/>
<path d="M225.865 66.066C225.865 63.3706 228.05 61.1855 230.746 61.1855H325.65C328.346 61.1855 330.531 63.3706 330.531 66.0661V114.957C330.531 117.653 328.346 119.838 325.65 119.838H230.746C228.05 119.838 225.865 117.653 225.865 114.957V66.066Z" fill="#FFC370"/>
<g style="mix-blend-mode:multiply" opacity="0.8">
<ellipse cx="278.197" cy="83.5783" rx="9.44941" ry="9.35763" fill="#FFC370"/>
<path d="M278.198 95.2754C263.742 95.2754 251.813 105.991 250.069 119.839H306.327C304.583 105.991 292.654 95.2754 278.198 95.2754Z" fill="#FFC370"/>
</g>
<path d="M285.42 110.457C285.617 111.655 286.701 112.57 288.008 112.57C289.302 112.57 290.377 111.673 290.59 110.494C290.617 110.383 290.629 110.294 290.625 110.219C290.625 110.132 290.56 110.064 290.47 110.064H290.324H285.717H285.548C285.458 110.064 285.393 110.132 285.393 110.218C285.393 110.218 285.393 110.218 285.393 110.218C285.393 110.22 285.393 110.222 285.393 110.224C285.391 110.29 285.399 110.366 285.42 110.457L285.42 110.457Z" fill="#FFC370"/>
<path d="M289.297 114.106C289.198 113.508 288.657 113.05 288.003 113.05C287.356 113.05 286.818 113.498 286.712 114.088C286.698 114.144 286.692 114.188 286.694 114.226C286.694 114.269 286.727 114.303 286.772 114.303H286.845H289.148H289.233C289.278 114.303 289.31 114.269 289.31 114.226C289.31 114.226 289.31 114.226 289.311 114.226C289.31 114.225 289.31 114.224 289.31 114.223C289.312 114.19 289.307 114.152 289.297 114.106Z" fill="#FFC370"/>
<rect x="212.127" y="55.9707" width="0.654161" height="148.586" fill="#F6F8FA"/>
<rect x="226.475" y="192.134" width="103.446" height="14.4205" rx="4.27044" fill="white" stroke="#F0F4F7" stroke-width="1.22013"/>
<rect x="318.756" y="195.436" width="7.84993" height="7.82031" rx="3.91015" fill="#F0F4F7"/>
<rect x="225.865" y="149.814" width="7.84993" height="7.82031" rx="3.91015" fill="#70AAFC"/>
<rect x="238.948" y="152.424" width="48.4079" height="2.60677" fill="#F6F8FA"/>
<rect x="238.948" y="139.924" width="48.4079" height="2.60677" fill="#F6F8FA"/>
<rect x="225.866" y="136.781" width="7.84993" height="7.82031" rx="3.91015" fill="#1BD697"/>
<rect x="225.866" y="136.781" width="7.84993" height="7.82031" rx="3.91015" fill="#FFC370"/>
<mask id="mask1" mask-type="alpha" maskUnits="userSpaceOnUse" x="225" y="136" width="9" height="9">
<rect x="225.866" y="136.781" width="7.84993" height="7.82031" rx="3.91015" fill="#FFC370"/>
</mask>
<g mask="url(#mask1)">
<g style="mix-blend-mode:multiply">
<ellipse cx="229.801" cy="139.502" rx="1.43233" ry="1.41588" fill="#FFC370"/>
</g>
<g style="mix-blend-mode:multiply">
<path d="M229.802 141.27C227.611 141.27 225.802 142.891 225.538 144.986H234.066C233.801 142.891 231.993 141.27 229.802 141.27Z" fill="#FFC370"/>
</g>
<path d="M230.695 142.811C230.729 143.014 230.912 143.169 231.134 143.169C231.354 143.169 231.537 143.017 231.573 142.817C231.577 142.798 231.579 142.783 231.579 142.77C231.579 142.756 231.568 142.744 231.552 142.744H231.527H230.745H230.717C230.702 142.744 230.691 142.756 230.691 142.77C230.69 142.77 230.69 142.77 230.69 142.77C230.69 142.771 230.69 142.771 230.69 142.771C230.69 142.782 230.692 142.795 230.695 142.811L230.695 142.811Z" fill="#FFC370"/>
<path d="M231.354 143.433C231.337 143.331 231.245 143.253 231.134 143.253C231.025 143.253 230.933 143.33 230.915 143.43C230.913 143.44 230.912 143.447 230.912 143.454C230.912 143.461 230.918 143.467 230.926 143.467H230.938H231.329H231.343C231.351 143.467 231.356 143.461 231.356 143.454C231.356 143.454 231.356 143.454 231.356 143.454C231.356 143.454 231.356 143.453 231.356 143.453C231.357 143.448 231.356 143.441 231.354 143.433Z" fill="#FFC370"/>
</g>
<rect opacity="0.24" x="265.115" y="125.051" width="26.1664" height="6.51692" rx="3.25846" fill="#1BD697"/>
<rect opacity="0.24" x="265.115" y="162.85" width="26.1664" height="6.51692" rx="3.25846" fill="#1BD697"/>
<rect opacity="0.24" x="259.228" y="174.58" width="39.2496" height="6.51692" rx="3.25846" fill="#1BD697"/>
<rect x="76.7168" y="100.289" width="16.6157" height="59.9557" fill="#F6F8FA"/>
<rect x="98.9561" y="113.977" width="16.354" height="46.2701" fill="#F6F8FA"/>
<rect x="121.199" y="136.785" width="16.354" height="23.4609" fill="#F6F8FA"/>
<rect x="143.44" y="121.797" width="16.354" height="38.4498" fill="#F6F8FA"/>
<path d="M24.4321 33.761C24.4321 28.6088 28.6088 24.4321 33.761 24.4321H334.239C339.391 24.4321 343.568 28.6088 343.568 33.761V53.7565H24.4321V33.761Z" fill="white" stroke="#F0F4F7" stroke-width="0.864287"/>
<rect x="315.409" y="32.0996" width="14.2536" height="14.1961" rx="2.54094" stroke="#F0F4F7"/>
<path d="M42.3768 35.5528C42.8365 38.3444 45.3637 40.4793 48.4123 40.4793C51.43 40.4793 53.9368 38.3874 54.4332 35.6373C54.4967 35.3792 54.523 35.1729 54.515 34.9963C54.515 34.7939 54.3633 34.6367 54.1531 34.6367H53.812H43.0699H42.6768C42.4667 34.6367 42.3151 34.7936 42.3149 34.9958C42.3144 34.9958 42.3139 34.9958 42.3135 34.9958C42.3138 35.0003 42.3141 35.0048 42.3144 35.0093C42.3089 35.1632 42.3291 35.3395 42.3768 35.5528L42.3768 35.5528Z" fill="#2D81F7"/>
<path d="M51.4097 44.0595C51.1799 42.6637 49.9163 41.5963 48.392 41.5963C46.8831 41.5963 45.6297 42.6422 45.3816 44.0173C45.3498 44.1464 45.3366 44.2495 45.3407 44.3378C45.3407 44.439 45.4165 44.5176 45.5216 44.5176H45.6921H51.0632H51.2597C51.3648 44.5176 51.4406 44.4391 51.4407 44.338C51.4409 44.338 51.4412 44.3381 51.4414 44.3381C51.4413 44.3358 51.4411 44.3335 51.441 44.3313C51.4437 44.2543 51.4336 44.1662 51.4097 44.0595Z" fill="#08BD80"/>
<rect x="56.4321" y="204.432" width="255.136" height="47.1357" rx="9.32886" fill="white" stroke="#F0F4F7" stroke-width="0.864287"/>
<circle cx="96" cy="228" r="16" fill="#F6F8FA"/>
<path d="M88.7006 223.083C89.2229 222.718 90.0101 222.788 90.479 223.175L89.9412 222.393C89.5084 221.776 89.6634 221.108 90.2812 220.675C90.899 220.243 92.6495 221.404 92.6495 221.404C92.2129 220.781 92.2945 219.991 92.9179 219.553C93.2175 219.344 93.5881 219.262 93.9481 219.326C94.3081 219.389 94.6281 219.593 94.8379 219.893L100.627 228.071L99.889 235.223L93.7317 232.978L88.3612 225.015C88.2565 224.866 88.1822 224.698 88.1425 224.52C88.1029 224.342 88.0988 224.158 88.1303 223.979C88.1618 223.799 88.2284 223.628 88.3263 223.474C88.4241 223.32 88.5514 223.187 88.7006 223.083Z" fill="#EF9645"/>
<path d="M87.4974 227.632C87.4974 227.632 86.8685 226.715 87.7858 226.087C88.7019 225.458 89.3302 226.375 89.3302 226.375L92.2474 230.629C92.348 230.461 92.458 230.296 92.5808 230.132L88.5319 224.228C88.5319 224.228 87.9035 223.312 88.8202 222.684C89.7363 222.056 90.3646 222.972 90.3646 222.972L94.173 228.526C94.3146 228.41 94.4596 228.294 94.6091 228.18L90.1941 221.741C90.1941 221.741 89.5658 220.825 90.4824 220.196C91.3985 219.568 92.0269 220.484 92.0269 220.484L96.4419 226.922C96.6041 226.823 96.7646 226.737 96.9258 226.646L92.7991 220.628C92.7991 220.628 92.1708 219.712 93.0869 219.083C94.003 218.455 94.6313 219.371 94.6313 219.371L98.9946 225.735L99.658 226.702C96.9091 228.588 96.6474 232.135 98.218 234.426C98.5319 234.884 98.9902 234.57 98.9902 234.57C97.1052 231.821 97.6808 228.731 100.43 226.846L99.6196 222.79C99.6196 222.79 99.3169 221.721 100.385 221.417C101.454 221.115 101.757 222.183 101.757 222.183L102.694 224.963C103.065 226.066 103.46 227.164 103.982 228.203C105.459 231.136 104.577 234.782 101.794 236.691C98.7574 238.773 94.6069 237.999 92.5246 234.963L87.4974 227.632Z" fill="url(#paint0_linear)"/>
<path d="M92.6658 235.801C90.4436 235.801 88.198 233.555 88.198 231.333C88.198 231.026 87.973 230.777 87.6658 230.777C87.3586 230.777 87.0869 231.026 87.0869 231.333C87.0869 234.666 89.3325 236.912 92.6658 236.912C92.973 236.912 93.2214 236.64 93.2214 236.333C93.2214 236.026 92.973 235.801 92.6658 235.801Z" fill="#2D81F7"/>
<path d="M89.8889 236.889C88.2222 236.889 87.1111 235.778 87.1111 234.111C87.1111 233.964 87.0526 233.823 86.9484 233.718C86.8442 233.614 86.7029 233.556 86.5556 233.556C86.4082 233.556 86.2669 233.614 86.1627 233.718C86.0585 233.823 86 233.964 86 234.111C86 236.334 87.6667 238 89.8889 238C90.0362 238 90.1775 237.942 90.2817 237.837C90.3859 237.733 90.4444 237.592 90.4444 237.445C90.4444 237.297 90.3859 237.156 90.2817 237.052C90.1775 236.948 90.0362 236.889 89.8889 236.889ZM99.3333 219.111C99.186 219.111 99.0447 219.17 98.9405 219.274C98.8363 219.378 98.7778 219.52 98.7778 219.667C98.7778 219.814 98.8363 219.956 98.9405 220.06C99.0447 220.164 99.186 220.222 99.3333 220.222C101.556 220.222 103.778 222.216 103.778 224.667C103.778 224.814 103.836 224.956 103.94 225.06C104.045 225.164 104.186 225.222 104.333 225.222C104.481 225.222 104.622 225.164 104.726 225.06C104.83 224.956 104.889 224.814 104.889 224.667C104.889 221.604 102.667 219.111 99.3333 219.111Z" fill="#2D81F7"/>
<path d="M102.11 218.023C101.804 218.023 101.555 218.249 101.555 218.556C101.555 218.862 101.804 219.135 102.11 219.135C103.777 219.135 104.865 220.371 104.865 221.889C104.865 222.196 105.136 222.445 105.444 222.445C105.751 222.445 105.976 222.196 105.976 221.889C105.976 219.757 104.332 218.023 102.11 218.023Z" fill="#2D81F7"/>
<circle cx="228" cy="228" r="16" fill="#F6F8FA"/>
<path d="M234.668 230.223C233.001 230.223 230.953 234.164 230.779 235.778C230.545 237.953 231.89 238 231.89 238H238.001V232.445C238.001 232.445 236.091 230.223 234.668 230.223Z" fill="#2D81F7"/>
<path d="M234.106 234.28C235.003 232.726 235.377 231.263 234.942 231.012C234.507 230.76 233.427 231.816 232.53 233.37C231.633 234.924 231.258 236.387 231.693 236.639C232.129 236.89 233.209 235.834 234.106 234.28Z" fill="#1C6399"/>
<path d="M229.158 218C229.815 218 230.346 218.532 230.346 219.188C230.346 219.626 230.717 225.201 230.717 225.201L227.971 228V219.188C227.971 218.532 228.502 218 229.158 218Z" fill="#FFB037"/>
<path d="M228.485 220.773C228.485 220.162 228.958 219.668 229.542 219.668C230.126 219.668 230.6 220.163 230.6 220.773C230.6 220.773 230.897 224.074 231.262 225.978C231.749 227.015 232.022 228.579 231.962 229.449C231.992 229.67 235.087 232.23 235.087 232.23C234.931 233.237 233.832 235.649 232.443 236.763L230.487 235.138C228.885 234.914 228.011 233.288 228.011 232.77C228.011 231.112 228.485 220.773 228.485 220.773Z" fill="url(#paint1_linear)"/>
<path d="M221.333 230.223C223 230.223 225.049 234.164 225.222 235.778C225.456 237.953 224.111 238 224.111 238H218V232.445C218 232.445 219.91 230.223 221.333 230.223Z" fill="#2D81F7"/>
<path d="M224.305 236.641C224.741 236.389 224.366 234.926 223.469 233.372C222.572 231.818 221.492 230.762 221.057 231.014C220.621 231.265 220.996 232.728 221.893 234.282C222.79 235.836 223.87 236.892 224.305 236.641Z" fill="#1C6399"/>
<path d="M226.922 218.006C226.758 217.989 226.593 218.007 226.436 218.058C226.28 218.109 226.136 218.192 226.014 218.302C225.892 218.412 225.794 218.547 225.727 218.697C225.66 218.847 225.626 219.01 225.626 219.175C225.626 219.608 225.523 224.907 225.523 224.907L227.941 228L227.975 219.242C227.975 218.627 227.533 218.067 226.922 218.006Z" fill="#FFB037"/>
<path d="M227.513 220.4C227.513 219.789 227.04 219.295 226.456 219.295C225.872 219.295 225.399 219.79 225.399 220.4C225.399 220.4 225.101 223.701 224.737 225.605C224.249 226.642 223.976 228.206 224.036 229.076C224.006 229.297 220.911 231.857 220.911 231.857C221.067 232.864 222.166 235.276 223.555 236.39L225.511 234.765C227.114 234.541 227.987 232.915 227.987 232.397C227.987 230.739 227.513 220.4 227.513 220.4Z" fill="url(#paint2_linear)"/>
<path d="M227.975 232.346C227.865 232.346 227.759 232.302 227.681 232.224C227.602 232.146 227.559 232.04 227.559 231.929V219.551C227.559 219.441 227.602 219.335 227.681 219.257C227.759 219.179 227.865 219.135 227.975 219.135C228.086 219.135 228.192 219.179 228.27 219.257C228.348 219.335 228.392 219.441 228.392 219.551V231.93C228.392 231.984 228.381 232.039 228.36 232.089C228.339 232.14 228.309 232.185 228.27 232.224C228.231 232.263 228.185 232.293 228.135 232.314C228.084 232.335 228.03 232.346 227.975 232.346Z" fill="#FFB037"/>
<circle cx="272" cy="228" r="16" fill="#F6F8FA"/>
<circle cx="184" cy="228" r="16" fill="#F6F8FA"/>
<path d="M192.699 227.886C192.699 227.604 192.632 227.34 192.519 227.1C191.769 224.681 188.258 224.858 183.263 224.74C182.428 224.72 182.906 223.734 183.199 221.569C183.39 220.162 182.482 218 180.956 218C178.44 218 180.861 219.984 178.636 224.892C177.448 227.514 174.791 226.045 174.791 228.679V234.674C174.791 235.699 174.892 236.685 176.334 236.847C177.731 237.004 177.417 238 179.433 238H189.525C190.02 237.999 190.493 237.803 190.843 237.453C191.192 237.104 191.389 236.63 191.389 236.135C191.389 235.709 191.24 235.321 190.999 235.007C191.569 234.687 191.961 234.084 191.961 233.385C191.961 232.96 191.812 232.572 191.572 232.258C192.144 231.939 192.536 231.336 192.536 230.636C192.536 230.127 192.331 229.666 191.999 229.329C192.216 229.156 192.392 228.937 192.513 228.687C192.634 228.437 192.698 228.163 192.699 227.886Z" fill="url(#paint3_linear)"/>
<path d="M186.023 229.748H190.836C191.49 229.748 192.104 229.398 192.439 228.834C192.498 228.723 192.512 228.593 192.478 228.472C192.445 228.35 192.365 228.246 192.256 228.182C192.148 228.117 192.018 228.098 191.895 228.126C191.772 228.155 191.665 228.23 191.596 228.336C191.518 228.467 191.406 228.577 191.273 228.653C191.139 228.729 190.989 228.769 190.835 228.769H185.908C185.419 228.769 185.022 228.372 185.022 227.884C185.022 227.395 185.419 226.998 185.908 226.998H189.2C189.33 226.998 189.455 226.947 189.546 226.855C189.638 226.763 189.69 226.639 189.69 226.509C189.69 226.379 189.638 226.255 189.546 226.163C189.455 226.071 189.33 226.02 189.2 226.02H185.907C185.413 226.02 184.939 226.217 184.59 226.566C184.24 226.916 184.044 227.389 184.043 227.884C184.043 228.457 184.309 228.964 184.717 229.307C184.54 229.479 184.4 229.686 184.304 229.914C184.208 230.142 184.159 230.387 184.159 230.634C184.159 231.209 184.426 231.718 184.837 232.059C184.643 232.25 184.493 232.481 184.398 232.736C184.304 232.991 184.266 233.264 184.289 233.535C184.311 233.806 184.393 234.069 184.528 234.305C184.663 234.541 184.848 234.744 185.071 234.901C184.766 235.239 184.596 235.678 184.594 236.133C184.595 236.628 184.792 237.101 185.141 237.451C185.491 237.8 185.964 237.997 186.459 237.997H189.526C189.849 237.997 190.167 237.912 190.448 237.752C190.729 237.592 190.963 237.362 191.129 237.085C191.193 236.973 191.21 236.842 191.177 236.718C191.144 236.594 191.064 236.488 190.954 236.423C190.844 236.357 190.712 236.337 190.588 236.368C190.463 236.398 190.356 236.476 190.288 236.585C190.209 236.717 190.098 236.826 189.964 236.902C189.83 236.978 189.679 237.018 189.526 237.019H186.459C185.97 237.019 185.573 236.622 185.573 236.133C185.573 235.645 185.97 235.248 186.459 235.248H190.097C190.421 235.247 190.738 235.162 191.019 235.002C191.3 234.842 191.535 234.612 191.701 234.335C191.735 234.279 191.758 234.218 191.769 234.154C191.779 234.089 191.776 234.024 191.761 233.96C191.745 233.897 191.718 233.838 191.679 233.785C191.64 233.733 191.591 233.689 191.535 233.655C191.479 233.622 191.417 233.6 191.353 233.591C191.288 233.582 191.223 233.586 191.16 233.603C191.097 233.62 191.038 233.649 190.986 233.689C190.935 233.728 190.892 233.778 190.86 233.835C190.782 233.967 190.67 234.078 190.537 234.154C190.403 234.23 190.251 234.27 190.097 234.269H186.147C185.919 234.259 185.703 234.162 185.545 233.997C185.387 233.832 185.299 233.612 185.299 233.384C185.299 233.155 185.387 232.935 185.545 232.77C185.703 232.605 185.919 232.508 186.147 232.498H190.672C190.996 232.497 191.313 232.413 191.594 232.253C191.875 232.093 192.11 231.863 192.276 231.585C192.339 231.474 192.356 231.342 192.323 231.218C192.29 231.094 192.21 230.988 192.1 230.923C191.99 230.857 191.859 230.838 191.734 230.868C191.61 230.898 191.502 230.976 191.435 231.085C191.357 231.218 191.245 231.328 191.111 231.404C190.978 231.48 190.826 231.52 190.672 231.519H186.023C185.795 231.509 185.58 231.412 185.422 231.247C185.264 231.082 185.176 230.862 185.176 230.633C185.176 230.405 185.264 230.185 185.422 230.02C185.58 229.855 185.795 229.758 186.023 229.748Z" fill="url(#paint4_linear)"/>
<circle cx="140" cy="228" r="16" fill="#F6F8FA"/>
<path d="M140 236.899C145.216 236.899 149.445 232.67 149.445 227.454C149.445 222.238 145.216 218.01 140 218.01C134.784 218.01 130.556 222.238 130.556 227.454C130.556 232.67 134.784 236.899 140 236.899Z" fill="url(#paint5_linear)"/>
<path d="M137.971 228.966C137.888 228.9 137.827 228.81 137.798 228.708C137.779 228.649 137.773 228.587 137.78 228.526C137.787 228.465 137.806 228.406 137.837 228.352C137.868 228.299 137.909 228.253 137.959 228.216C138.009 228.18 138.066 228.154 138.126 228.141C140.641 227.574 142.335 228.898 142.407 228.955C142.62 229.125 142.662 229.424 142.503 229.624C142.344 229.823 142.043 229.847 141.83 229.678C141.769 229.631 140.429 228.61 138.396 229.068C138.322 229.084 138.245 229.083 138.172 229.065C138.098 229.048 138.03 229.014 137.971 228.966Z" fill="#65471B"/>
<path d="M137.288 225.682C137.94 225.682 138.469 225.021 138.469 224.206C138.469 223.391 137.94 222.73 137.288 222.73C136.636 222.73 136.107 223.391 136.107 224.206C136.107 225.021 136.636 225.682 137.288 225.682Z" fill="#65471B"/>
<path d="M143.542 226.273C144.194 226.273 144.722 225.613 144.722 224.798C144.722 223.983 144.194 223.322 143.542 223.322C142.89 223.322 142.361 223.983 142.361 224.798C142.361 225.613 142.89 226.273 143.542 226.273Z" fill="#65471B"/>
<path d="M139.042 236.971C139.042 236.971 139.745 236.743 139.836 236.22C139.932 235.68 139.489 235.572 139.489 235.572C139.489 235.572 140.068 235.456 140.14 234.807C140.209 234.196 139.662 234.05 139.662 234.05C139.662 234.05 140.201 233.828 140.226 233.195C140.248 232.662 139.674 232.402 139.674 232.402C139.674 232.402 142.473 231.723 142.76 231.657C143.047 231.59 143.494 231.315 143.354 230.716C143.216 230.116 142.685 230.094 142.411 230.158C142.137 230.222 138.665 231.028 137.467 231.307L136.668 231.493C136.368 231.563 136.231 231.432 136.443 231.208C136.725 230.911 136.906 230.581 136.969 230.034C137.035 229.459 136.84 228.749 136.728 228.474C136.52 227.962 136.17 227.558 135.765 227.419C135.133 227.202 134.684 227.597 134.908 228.286C135.244 229.316 135.024 230.161 134.445 230.671C133.085 231.869 132.452 232.724 132.873 234.545C133.333 236.531 135.305 237.809 137.291 237.349L139.042 236.971Z" fill="url(#paint6_linear)"/>
<path d="M139.042 236.971L139.118 237.324L139.136 237.32L139.154 237.314L139.042 236.971ZM139.836 236.22L139.48 236.157L139.48 236.158L139.836 236.22ZM139.489 235.572L139.418 235.218C139.252 235.251 139.132 235.395 139.128 235.564C139.125 235.733 139.239 235.882 139.403 235.922L139.489 235.572ZM140.14 234.807L140.499 234.847L140.499 234.847L140.14 234.807ZM139.662 234.05L139.524 233.716C139.381 233.775 139.291 233.919 139.302 234.074C139.312 234.228 139.419 234.359 139.569 234.399L139.662 234.05ZM140.226 233.195L140.587 233.21L140.587 233.209L140.226 233.195ZM139.674 232.402L139.589 232.051C139.439 232.087 139.329 232.214 139.314 232.368C139.3 232.521 139.384 232.667 139.524 232.73L139.674 232.402ZM142.76 231.657L142.842 232.008L142.842 232.008L142.76 231.657ZM143.354 230.716L143.002 230.797L143.002 230.797L143.354 230.716ZM142.411 230.158L142.493 230.51L142.493 230.51L142.411 230.158ZM137.467 231.307L137.549 231.659L137.549 231.659L137.467 231.307ZM136.668 231.493L136.586 231.141L136.585 231.141L136.668 231.493ZM136.969 230.034L136.61 229.993L136.61 229.993L136.969 230.034ZM136.728 228.474L137.063 228.338L137.063 228.338L136.728 228.474ZM135.765 227.419L135.648 227.76L135.648 227.76L135.765 227.419ZM134.908 228.286L134.565 228.398L134.565 228.398L134.908 228.286ZM134.445 230.671L134.684 230.942L134.684 230.942L134.445 230.671ZM132.873 234.545L132.521 234.626L132.521 234.626L132.873 234.545ZM137.291 237.349L137.215 236.996L137.209 236.998L137.291 237.349ZM139.042 236.971C139.154 237.314 139.154 237.314 139.154 237.314C139.154 237.314 139.154 237.314 139.154 237.314C139.154 237.314 139.154 237.314 139.155 237.314C139.155 237.314 139.155 237.314 139.156 237.314C139.157 237.313 139.158 237.313 139.159 237.313C139.162 237.312 139.165 237.311 139.169 237.309C139.176 237.307 139.187 237.303 139.199 237.298C139.224 237.289 139.258 237.276 139.298 237.258C139.379 237.223 139.488 237.169 139.602 237.094C139.819 236.952 140.12 236.691 140.192 236.282L139.48 236.158C139.46 236.271 139.365 236.386 139.207 236.489C139.134 236.537 139.062 236.573 139.008 236.597C138.981 236.608 138.96 236.617 138.946 236.622C138.939 236.625 138.934 236.626 138.931 236.627C138.93 236.628 138.929 236.628 138.929 236.628C138.929 236.628 138.929 236.628 138.929 236.628C138.929 236.628 138.929 236.628 138.93 236.628C138.93 236.628 138.93 236.628 138.93 236.628C138.93 236.628 138.93 236.628 138.93 236.628C138.93 236.628 138.93 236.628 139.042 236.971ZM140.191 236.283C140.261 235.895 140.135 235.611 139.948 235.433C139.863 235.351 139.775 235.3 139.709 235.27C139.676 235.254 139.646 235.243 139.623 235.235C139.612 235.231 139.602 235.228 139.594 235.226C139.59 235.225 139.586 235.224 139.583 235.223C139.581 235.222 139.58 235.222 139.579 235.222C139.578 235.222 139.577 235.221 139.577 235.221C139.576 235.221 139.576 235.221 139.576 235.221C139.576 235.221 139.575 235.221 139.575 235.221C139.575 235.221 139.575 235.221 139.489 235.572C139.403 235.922 139.403 235.922 139.403 235.922C139.403 235.922 139.403 235.922 139.403 235.922C139.402 235.922 139.402 235.922 139.402 235.922C139.401 235.922 139.401 235.922 139.4 235.922C139.399 235.921 139.399 235.921 139.398 235.921C139.396 235.921 139.395 235.92 139.394 235.92C139.393 235.92 139.392 235.919 139.393 235.92C139.394 235.92 139.398 235.921 139.405 235.924C139.419 235.931 139.435 235.941 139.449 235.954C139.46 235.965 139.507 236.005 139.48 236.157L140.191 236.283ZM139.489 235.572C139.56 235.926 139.56 235.926 139.56 235.926C139.56 235.926 139.561 235.926 139.561 235.926C139.561 235.926 139.561 235.925 139.562 235.925C139.562 235.925 139.563 235.925 139.563 235.925C139.565 235.925 139.566 235.924 139.568 235.924C139.571 235.923 139.574 235.923 139.579 235.922C139.587 235.92 139.598 235.917 139.611 235.913C139.636 235.906 139.67 235.896 139.709 235.881C139.786 235.852 139.89 235.803 139.998 235.726C140.22 235.567 140.45 235.29 140.499 234.847L139.781 234.767C139.758 234.973 139.662 235.078 139.577 235.139C139.531 235.172 139.486 235.193 139.453 235.206C139.436 235.212 139.424 235.216 139.418 235.217C139.414 235.218 139.413 235.219 139.413 235.219C139.413 235.219 139.413 235.219 139.414 235.218C139.415 235.218 139.415 235.218 139.416 235.218C139.416 235.218 139.417 235.218 139.417 235.218C139.417 235.218 139.417 235.218 139.418 235.218C139.418 235.218 139.418 235.218 139.418 235.218C139.418 235.218 139.418 235.218 139.489 235.572ZM140.499 234.847C140.548 234.41 140.371 234.109 140.165 233.928C140.069 233.843 139.971 233.788 139.898 233.754C139.861 233.737 139.829 233.725 139.804 233.716C139.792 233.712 139.782 233.709 139.773 233.706C139.769 233.705 139.766 233.704 139.762 233.703C139.761 233.703 139.76 233.702 139.758 233.702C139.758 233.702 139.757 233.702 139.756 233.701C139.756 233.701 139.756 233.701 139.756 233.701C139.756 233.701 139.755 233.701 139.755 233.701C139.755 233.701 139.755 233.701 139.662 234.05C139.569 234.399 139.569 234.399 139.569 234.399C139.569 234.399 139.568 234.399 139.568 234.399C139.568 234.399 139.568 234.399 139.568 234.399C139.567 234.398 139.567 234.398 139.566 234.398C139.566 234.398 139.565 234.398 139.565 234.398C139.564 234.397 139.563 234.397 139.563 234.397C139.562 234.397 139.564 234.397 139.566 234.398C139.571 234.4 139.582 234.404 139.595 234.41C139.622 234.423 139.657 234.442 139.688 234.47C139.739 234.515 139.801 234.593 139.781 234.767L140.499 234.847ZM139.662 234.05C139.8 234.384 139.8 234.384 139.8 234.384C139.8 234.384 139.8 234.384 139.8 234.384C139.801 234.383 139.801 234.383 139.801 234.383C139.802 234.383 139.802 234.383 139.803 234.383C139.804 234.382 139.805 234.382 139.806 234.381C139.809 234.38 139.813 234.378 139.816 234.377C139.824 234.373 139.834 234.369 139.845 234.363C139.868 234.352 139.898 234.336 139.933 234.315C140.003 234.273 140.094 234.209 140.187 234.118C140.376 233.934 140.57 233.637 140.587 233.21L139.866 233.18C139.857 233.385 139.769 233.516 139.682 233.601C139.637 233.645 139.592 233.677 139.56 233.696C139.544 233.706 139.532 233.712 139.525 233.715C139.522 233.717 139.52 233.718 139.52 233.718C139.519 233.718 139.52 233.718 139.521 233.718C139.521 233.718 139.521 233.717 139.522 233.717C139.522 233.717 139.523 233.717 139.523 233.717C139.523 233.717 139.523 233.716 139.524 233.716C139.524 233.716 139.524 233.716 139.524 233.716C139.524 233.716 139.524 233.716 139.662 234.05ZM140.587 233.209C140.604 232.798 140.387 232.505 140.205 232.335C140.112 232.248 140.02 232.185 139.952 232.143C139.917 232.122 139.887 232.105 139.865 232.094C139.854 232.088 139.845 232.083 139.838 232.08C139.834 232.078 139.831 232.077 139.829 232.075C139.827 232.075 139.826 232.074 139.825 232.074C139.825 232.074 139.824 232.074 139.824 232.073C139.824 232.073 139.824 232.073 139.823 232.073C139.823 232.073 139.823 232.073 139.823 232.073C139.823 232.073 139.823 232.073 139.674 232.402C139.524 232.73 139.524 232.73 139.524 232.73C139.524 232.73 139.524 232.73 139.524 232.73C139.524 232.73 139.524 232.73 139.523 232.73C139.523 232.73 139.523 232.73 139.523 232.73C139.522 232.729 139.522 232.729 139.522 232.729C139.522 232.729 139.522 232.729 139.522 232.73C139.524 232.73 139.527 232.732 139.531 232.734C139.54 232.739 139.555 232.747 139.574 232.759C139.613 232.782 139.663 232.817 139.711 232.862C139.811 232.955 139.87 233.059 139.866 233.181L140.587 233.209ZM139.674 232.402C139.759 232.753 139.759 232.753 139.759 232.753C139.759 232.753 139.759 232.753 139.759 232.753C139.759 232.753 139.759 232.752 139.759 232.752C139.76 232.752 139.76 232.752 139.761 232.752C139.762 232.752 139.764 232.751 139.767 232.751C139.772 232.749 139.78 232.747 139.79 232.745C139.811 232.74 139.841 232.733 139.879 232.723C139.957 232.705 140.067 232.678 140.2 232.646C140.467 232.581 140.826 232.494 141.194 232.405C141.931 232.227 142.7 232.041 142.842 232.008L142.679 231.305C142.533 231.339 141.758 231.526 141.024 231.703C140.656 231.792 140.297 231.879 140.03 231.944C139.897 231.976 139.787 232.003 139.709 232.021C139.671 232.031 139.641 232.038 139.62 232.043C139.61 232.046 139.602 232.047 139.597 232.049C139.594 232.049 139.592 232.05 139.591 232.05C139.59 232.05 139.589 232.05 139.589 232.051C139.589 232.051 139.589 232.051 139.589 232.051C139.589 232.051 139.589 232.051 139.589 232.051C139.589 232.051 139.589 232.051 139.674 232.402ZM142.842 232.008C143.041 231.962 143.299 231.845 143.491 231.621C143.697 231.38 143.801 231.043 143.706 230.634L143.002 230.797C143.047 230.987 142.997 231.088 142.943 231.151C142.874 231.231 142.767 231.284 142.678 231.305L142.842 232.008ZM143.706 230.634C143.61 230.219 143.361 229.968 143.066 229.852C142.793 229.745 142.513 229.764 142.329 229.807L142.493 230.51C142.584 230.489 142.706 230.486 142.802 230.524C142.874 230.553 142.96 230.612 143.002 230.797L143.706 230.634ZM142.33 229.807C142.058 229.87 138.58 230.677 137.385 230.955L137.549 231.659C138.749 231.379 142.216 230.575 142.493 230.51L142.33 229.807ZM137.385 230.955L136.586 231.141L136.749 231.844L137.549 231.659L137.385 230.955ZM136.585 231.141C136.537 231.152 136.516 231.151 136.517 231.151C136.519 231.151 136.532 231.152 136.552 231.161C136.573 231.17 136.606 231.189 136.636 231.224C136.668 231.261 136.69 231.307 136.698 231.355C136.706 231.401 136.699 231.437 136.694 231.457C136.684 231.492 136.673 231.491 136.705 231.457L136.181 230.96C136.108 231.037 136.034 231.137 136 231.257C135.961 231.389 135.971 231.559 136.091 231.697C136.196 231.818 136.336 231.857 136.435 231.868C136.54 231.88 136.648 231.868 136.75 231.844L136.585 231.141ZM136.705 231.457C137.04 231.103 137.256 230.701 137.327 230.076L136.61 229.993C136.556 230.461 136.41 230.718 136.181 230.96L136.705 231.457ZM137.327 230.076C137.403 229.417 137.186 228.642 137.063 228.338L136.393 228.609C136.494 228.857 136.666 229.502 136.61 229.993L137.327 230.076ZM137.063 228.338C136.833 227.772 136.422 227.263 135.882 227.077L135.648 227.76C135.917 227.853 136.208 228.152 136.393 228.61L137.063 228.338ZM135.882 227.077C135.486 226.941 135.057 226.971 134.765 227.253C134.469 227.539 134.427 227.973 134.565 228.398L135.251 228.174C135.166 227.91 135.236 227.802 135.267 227.772C135.301 227.74 135.412 227.68 135.648 227.76L135.882 227.077ZM134.565 228.398C134.866 229.324 134.653 230.007 134.206 230.4L134.684 230.942C135.395 230.315 135.621 229.308 135.251 228.174L134.565 228.398ZM134.207 230.4C133.524 231.001 132.974 231.557 132.664 232.222C132.345 232.905 132.298 233.661 132.521 234.626L133.225 234.464C133.027 233.608 133.086 233.026 133.318 232.527C133.56 232.01 134.006 231.539 134.684 230.942L134.207 230.4ZM132.521 234.626C133.025 236.8 135.185 238.208 137.372 237.701L137.209 236.998C135.425 237.411 133.642 236.262 133.225 234.463L132.521 234.626ZM137.367 237.702L139.118 237.324L138.966 236.618L137.215 236.996L137.367 237.702Z" fill="#99A8AE"/>
<path d="M135.164 221.527C135.07 221.477 134.994 221.399 134.947 221.305C134.918 221.251 134.9 221.191 134.896 221.129C134.891 221.068 134.899 221.006 134.92 220.948C134.94 220.89 134.973 220.837 135.015 220.792C135.057 220.747 135.108 220.711 135.165 220.687C137.535 219.67 139.442 220.663 139.522 220.706C139.763 220.834 139.86 221.121 139.739 221.347C139.619 221.572 139.328 221.651 139.088 221.524C139.019 221.489 137.514 220.728 135.6 221.55C135.53 221.579 135.455 221.592 135.379 221.588C135.304 221.583 135.23 221.563 135.164 221.527ZM141.906 223.61C141.816 223.554 141.746 223.472 141.704 223.374C141.679 223.318 141.666 223.257 141.665 223.196C141.665 223.134 141.677 223.073 141.702 223.016C141.726 222.959 141.762 222.908 141.807 222.866C141.853 222.824 141.906 222.792 141.964 222.772C144.398 221.919 146.234 223.039 146.311 223.087C146.541 223.232 146.619 223.524 146.484 223.742C146.349 223.958 146.053 224.017 145.822 223.874C145.756 223.834 144.307 222.973 142.341 223.663C142.269 223.687 142.192 223.695 142.117 223.685C142.042 223.676 141.97 223.65 141.906 223.61Z" fill="#65471B"/>
<path d="M270.601 231.83H273.364L273.448 230.66C273.503 229.649 274.704 228.824 275.848 227.787C277.104 226.617 278.304 225.207 278.304 223.133C278.304 219.702 275.513 218 272.527 218C270.238 218 268.284 218.904 267 220.447L269.345 222.521C270.042 221.537 271.215 220.952 272.275 220.952C273.727 220.952 274.787 221.777 274.787 223.293C274.787 224.622 273.922 225.606 273.001 226.564C271.829 227.734 270.573 228.824 270.601 230.5V231.83ZM272.052 238C273.196 238 274.145 237.122 274.145 236.032C274.145 234.941 273.196 234.037 272.052 234.037C270.88 234.037 269.931 234.941 269.931 236.032C269.931 237.122 270.88 238 272.052 238Z" fill="url(#paint7_linear)"/>
</g>
<defs>
<linearGradient id="paint0_linear" x1="95.9887" y1="218.863" x2="95.9887" y2="237.86" gradientUnits="userSpaceOnUse">
<stop stop-color="#FFDB57"/>
<stop offset="1" stop-color="#FFB047"/>
</linearGradient>
<linearGradient id="paint1_linear" x1="229.11" y1="223.001" x2="235.776" y2="238" gradientUnits="userSpaceOnUse">
<stop stop-color="#FFDB57"/>
<stop offset="1" stop-color="#FFAF45"/>
</linearGradient>
<linearGradient id="paint2_linear" x1="222.011" y1="222.628" x2="228.677" y2="237.627" gradientUnits="userSpaceOnUse">
<stop stop-color="#FFDB57"/>
<stop offset="1" stop-color="#FFAF45"/>
</linearGradient>
<linearGradient id="paint3_linear" x1="183.745" y1="218" x2="183.745" y2="254.22" gradientUnits="userSpaceOnUse">
<stop stop-color="#FFDB57"/>
<stop offset="1" stop-color="#FFA62F"/>
</linearGradient>
<linearGradient id="paint4_linear" x1="185.453" y1="230.727" x2="198.597" y2="235.202" gradientUnits="userSpaceOnUse">
<stop stop-color="#EF9645"/>
<stop offset="1" stop-color="#EF9645" stop-opacity="0"/>
</linearGradient>
<linearGradient id="paint5_linear" x1="140" y1="218.01" x2="140" y2="236.899" gradientUnits="userSpaceOnUse">
<stop stop-color="#FFDB57"/>
<stop offset="1" stop-color="#FFA62F"/>
</linearGradient>
<linearGradient id="paint6_linear" x1="137.5" y1="232.444" x2="138.062" y2="237.443" gradientUnits="userSpaceOnUse">
<stop stop-color="white"/>
<stop offset="1" stop-color="#F5F5F5"/>
</linearGradient>
<linearGradient id="paint7_linear" x1="272.652" y1="218" x2="272.652" y2="238" gradientUnits="userSpaceOnUse">
<stop stop-color="#FFDB57"/>
<stop offset="1" stop-color="#FFB047"/>
</linearGradient>
</defs>
</svg>
