<svg width="24" height="24" viewBox="0 0 24 24" fill="none" xmlns="http://www.w3.org/2000/svg">
<path d="M3.17065 10.0653V19.3608C3.17065 20.9861 4.48821 22.3037 6.11351 22.3037H16.3151H17.3331C19.2631 22.3037 20.8278 20.739 20.8278 18.809V16.1894V10.0653H3.17065Z" fill="#BE2A44"/>
<path d="M10.2251 8.04007C10.2251 7.88567 10.3503 7.7605 10.5047 7.7605H13.4769C13.6314 7.7605 13.7565 7.88567 13.7565 8.04007V22.3031H10.2251V8.04007Z" fill="#FFA53B"/>
<path fill-rule="evenodd" clip-rule="evenodd" d="M11.9824 5.76732C11.9747 5.74419 11.9663 5.72103 11.9571 5.69788L10.6917 2.49977C10.3553 1.64945 9.2579 1.42206 8.61129 2.06868L6.67854 4.00142C6.03193 4.64804 6.25932 5.74542 7.10963 6.08186L10.3077 7.34723C11.0381 7.63618 11.763 7.21114 11.9824 6.57222C12.2019 7.21114 12.9268 7.63618 13.6571 7.34723L16.8552 6.08186C17.7056 5.74542 17.9329 4.64804 17.2863 4.00142L15.3536 2.06868C14.707 1.42206 13.6096 1.64945 13.2732 2.49977L12.0078 5.69788C11.9986 5.72103 11.9902 5.74419 11.9824 5.76732Z" fill="#FFB43B"/>
<rect x="1.98145" y="6.18481" width="20.0114" height="4.28816" rx="1.42939" fill="#E23D5A"/>
<path d="M10.2214 6.18433H13.7515V10.4725H10.2214V6.18433Z" fill="#FFB43B"/>
</svg>
