<svg width="25" height="20" viewBox="0 0 25 20" fill="none" xmlns="http://www.w3.org/2000/svg">
<path d="M0.12676 1.85949C1.04705 7.50549 6.10583 11.8234 12.2085 11.8234C18.2494 11.8234 23.2674 7.59243 24.261 2.03047C24.3882 1.50828 24.4408 1.09121 24.4248 0.733892C24.4248 0.32452 24.1212 0.00671387 23.7003 0.00671387H23.0175H1.51424H0.727277C0.306698 0.00671387 0.00326978 0.324042 0.00281376 0.732969C0.00187549 0.732934 0.000937571 0.732898 0 0.732861C0.000573937 0.742008 0.00115864 0.751151 0.00175411 0.760292C-0.00922273 1.07152 0.0311842 1.42817 0.12676 1.85949L0.12676 1.85949Z" fill="#2D81F7"/>
<path d="M18.2114 19.0575C17.7512 16.2345 15.2218 14.0755 12.1705 14.0755C9.15004 14.0755 6.64102 16.191 6.14423 18.972C6.08063 19.2331 6.05431 19.4416 6.06235 19.6203C6.06235 19.8249 6.21414 19.9838 6.42458 19.9838H6.76597H17.5176H17.9111C18.1214 19.9838 18.2731 19.8252 18.2733 19.6207C18.2738 19.6207 18.2743 19.6207 18.2747 19.6208C18.2744 19.6162 18.2742 19.6116 18.2739 19.6071C18.2793 19.4514 18.2591 19.2731 18.2114 19.0575Z" fill="#08BD80"/>
</svg>
