<svg width="11" height="12" viewBox="0 0 11 12" fill="none" xmlns="http://www.w3.org/2000/svg">
<path d="M6.44169 0.799553C6.52772 0.554228 6.87466 0.554229 6.9607 0.799554L7.78251 3.14298C7.80995 3.22124 7.87125 3.28293 7.94932 3.31088L10.2769 4.14418C10.5199 4.2312 10.5199 4.57497 10.2769 4.66199L7.94932 5.49529C7.87125 5.52324 7.80995 5.58493 7.78251 5.66319L6.96069 8.00662C6.87466 8.25194 6.52772 8.25194 6.44169 8.00662L5.61987 5.66319C5.59243 5.58493 5.53113 5.52324 5.45306 5.49529L3.12552 4.66199C2.88244 4.57497 2.88244 4.2312 3.12552 4.14418L5.45306 3.31088C5.53113 3.28293 5.59243 3.22124 5.61987 3.14298L6.44169 0.799553Z" fill="#FF9502"/>
<path d="M2.58532 6.93139C2.67135 6.68606 3.0183 6.68606 3.10433 6.93139L3.54573 8.19005C3.57317 8.26831 3.63447 8.33 3.71254 8.35796L4.96648 8.80688C5.20955 8.89391 5.20955 9.23767 4.96648 9.3247L3.71254 9.77363C3.63447 9.80158 3.57317 9.86327 3.54573 9.94153L3.10433 11.2002C3.0183 11.4455 2.67135 11.4455 2.58532 11.2002L2.14392 9.94153C2.11648 9.86327 2.05518 9.80158 1.97711 9.77363L0.723172 9.3247C0.480097 9.23767 0.480097 8.89391 0.723172 8.80688L1.97711 8.35796C2.05518 8.33 2.11648 8.26831 2.14392 8.19005L2.58532 6.93139Z" fill="#FF9502"/>
</svg>
